{"accessors" : [{"bufferView" : 0, "byteOffset" : 0, "componentType" : 5123, "count" : 48288, "type" : "SCALAR", "max" : [40433], "min" : [0]}, {"bufferView" : 1, "byteOffset" : 0, "componentType" : 5126, "count" : 40434, "type" : "VEC3", "max" : [7.301000118255615, 4.406199932098389, 4.303100109100342], "min" : [-4.880899906158447, -3.315999984741211, 0], "name" : "POSITION"}, {"bufferView" : 1, "byteOffset" : 12, "componentType" : 5126, "count" : 40434, "type" : "VEC3", "max" : [0.9990300536155701, 1.0000044107437134, 1.0000044107437134], "min" : [-0.9998071193695068, -1.0000044107437134, -0.9998021721839905], "name" : "NORMAL"}], "asset" : {"generator" : "Aspose.3D 25.3.0", "version" : "2.0"}, "buffers" : [{"uri" : "data:application/octet-stream;base64,", "byteLength" : 1067000}], "bufferViews" : [{"buffer" : 0, "byteOffset" : 0, "byteLength" : 96576, "target" : 34963}, {"buffer" : 0, "byteOffset" : 96580, "byteLength" : 970416, "byteStride" : 24, "target" : 34962}], "meshes" : [{"primitives" : [{"attributes" : {"POSITION" : 1, "NORMAL" : 2}, "indices" : 0, "mode" : 4}], "name" : ""}], "nodes" : [{"mesh" : 0, "name" : ""}], "scene" : 0, "scenes" : [{"nodes" : [0]}]}